<svg xmlns="http://www.w3.org/2000/svg" width="1600" height="1000" viewBox="0 0 1600 1000" role="img" aria-labelledby="title desc">
  <title id="title">Visual entonym memory image for عع</title>
  <desc id="desc">A silent pair-specific visual memory image. Neighborhood: الصوت والكلام والاسم. The scene is generated from layered Arabic semantic terms and roots: صوت؛ ارض؛ ماء؛ حكاية؛ معا؛ صوت، نطق، تسمية، علامة؛ قلة؛ نبت؛ جعع؛ دعع؛ شعع؛ قعع؛ معع؛ لعع.</desc>
  <defs>
    <linearGradient id="posterBg" x1="0" y1="0" x2="1" y2="1">
      <stop offset="0%" stop-color="#1f2a47"/>
      <stop offset="48%" stop-color="#515b93"/>
      <stop offset="100%" stop-color="#d3c2ff"/>
    </linearGradient>
    <radialGradient id="warmGlow" cx="48%" cy="25%" r="46%">
      <stop offset="0%" stop-color="#f4f1ff" stop-opacity=".88"/>
      <stop offset="62%" stop-color="#f4f1ff" stop-opacity=".24"/>
      <stop offset="100%" stop-color="#f4f1ff" stop-opacity="0"/>
    </radialGradient>
    <filter id="posterShadow" x="-20%" y="-20%" width="140%" height="150%">
      <feDropShadow dx="0" dy="22" stdDeviation="22" flood-color="#140d08" flood-opacity=".32"/>
    </filter>
    <filter id="hardInk" x="-20%" y="-20%" width="140%" height="150%">
      <feDropShadow dx="6" dy="8" stdDeviation="0" flood-color="#12100c" flood-opacity=".34"/>
    </filter>
    <style>
      .ink { stroke: #16120d; stroke-width: 8; stroke-linecap: round; stroke-linejoin: round; }
      .thin { stroke: #16120d; stroke-width: 5; stroke-linecap: round; stroke-linejoin: round; }
    </style>
  </defs>
  <rect width="1600" height="1000" fill="url(#posterBg)"/>
  <rect width="1600" height="1000" fill="url(#warmGlow)"/>
  <circle cx="1084" cy="202" r="37" fill="#a8e5ff" opacity="0.08"/>
  <circle cx="135" cy="157" r="20" fill="#fff8df" opacity="0.11"/>
  <circle cx="646" cy="112" r="37" fill="#a8e5ff" opacity="0.13"/>
  <circle cx="1157" cy="67" r="20" fill="#fff8df" opacity="0.16"/>
  <circle cx="208" cy="872" r="37" fill="#a8e5ff" opacity="0.08"/>
  <circle cx="719" cy="827" r="20" fill="#fff8df" opacity="0.11"/>
  <circle cx="1230" cy="782" r="37" fill="#a8e5ff" opacity="0.13"/>
  <circle cx="281" cy="737" r="20" fill="#fff8df" opacity="0.16"/>
  <circle cx="792" cy="692" r="37" fill="#a8e5ff" opacity="0.08"/>
  <circle cx="1303" cy="647" r="20" fill="#fff8df" opacity="0.11"/>
  <g id="semantic-scene" data-scene-group="C06_SOUND_SPEECH_NAME" data-primary-category="sound" filter="url(#posterShadow)" opacity=".76">

    <g id="poster-sound-ripples">
      <ellipse cx="800" cy="720" rx="500" ry="92" fill="none" stroke="#fff8df" stroke-width="20" opacity=".72"/>
      <ellipse cx="800" cy="720" rx="330" ry="58" fill="none" stroke="#f4f1ff" stroke-width="18"/>
      <ellipse cx="800" cy="720" rx="170" ry="32" fill="#a8e5ff" class="ink"/>
      <circle cx="800" cy="330" r="82" fill="#fff8df" class="ink"/>
      <path d="M800 414 L800 658" stroke="#f4f1ff" stroke-width="18" stroke-linecap="round"/>
    </g>
  </g>
  <g id="semantic-atmosphere" opacity=".72">

    <path d="M310 500 C520 290 520 710 310 500Z" fill="#a8e5ff" opacity=".34" class="ink"/>
    <path d="M620 294 C860 430 860 570 620 706" fill="none" stroke="#fff8df" stroke-width="30" stroke-linecap="round" opacity=".34"/>
    <path d="M870 208 C1220 406 1220 594 870 792" fill="none" stroke="#f4f1ff" stroke-width="18" stroke-linecap="round" opacity=".36"/>

    <path d="M850 96 L494 534 L754 500 L620 906 L1138 368 L842 422Z" fill="#f4f1ff" opacity=".20" class="ink"/>
    <path d="M284 756 L630 612 M990 380 L1358 214" stroke="#f4f1ff" stroke-width="13" stroke-linecap="round" opacity=".44"/>
    <path d="M802 500 L560 260 M802 500 L1178 244 M802 500 L1260 824 M802 500 L448 850" stroke="#fff8df" stroke-width="5" stroke-linecap="round" opacity=".24"/>
  </g>
  <g id="semantic-focal-cues" filter="url(#hardInk)">

    <g transform="rotate(-4.0 533.0 560.0)" opacity=".70">

      <g opacity=".86">
        <circle cx="425.5" cy="560.0" r="62.3" fill="#fff8df" class="thin"/>
        <path d="M482.1 509.1 C567.0 432.6 567.0 687.4 482.1 610.9" fill="#fff8df" class="thin"/>
        <path d="M572.6 412.8 C731.1 531.7 731.1 588.3 572.6 707.2" fill="none" stroke="#f4f1ff" stroke-width="34.0" stroke-linecap="round"/>
        <path d="M651.9 339.3 C844.3 503.4 844.3 616.6 651.9 780.7" fill="none" stroke="#fff8df" stroke-width="22.6" stroke-linecap="round" opacity=".72"/>
      </g>
    </g>

    <g transform="rotate(-9.0 1136.0 451.0)" opacity=".70">

      <g transform="rotate(-18 1136.0 451.0)" opacity=".88">
        <path d="M1169.0 248.0 L1027.4 455.7 L1117.1 446.3 L1069.9 654.0 L1258.7 408.5 L1154.9 427.4Z" fill="#a8e5ff" class="thin"/>
        <path d="M961.4 573.7 L1305.9 342.4" stroke="#fff8df" stroke-width="26.0" stroke-linecap="round" opacity=".62"/>
      </g>
    </g>
  </g>
  <g id="semantic-depth-cue">
    <circle cx="298.0" cy="875.0" r="13" fill="#ffd35c" opacity="0.28" stroke="#fff8df" stroke-width="3"/>
    <circle cx="398.0" cy="884.0" r="10" fill="#ffd35c" opacity="0.30" stroke="#fff8df" stroke-width="3"/>
    <circle cx="498.0" cy="893.0" r="17" fill="#ffd35c" opacity="0.32" stroke="#fff8df" stroke-width="3"/>
    <circle cx="598.0" cy="874.0" r="14" fill="#ffd35c" opacity="0.34" stroke="#fff8df" stroke-width="3"/>
    <circle cx="698.0" cy="883.0" r="11" fill="#ffd35c" opacity="0.36" stroke="#fff8df" stroke-width="3"/>
    <circle cx="798.0" cy="892.0" r="18" fill="#ffd35c" opacity="0.38" stroke="#fff8df" stroke-width="3"/>
    <circle cx="898.0" cy="873.0" r="15" fill="#ffd35c" opacity="0.40" stroke="#fff8df" stroke-width="3"/>
    <circle cx="998.0" cy="882.0" r="12" fill="#ffd35c" opacity="0.42" stroke="#fff8df" stroke-width="3"/>
    <circle cx="1098.0" cy="891.0" r="19" fill="#ffd35c" opacity="0.44" stroke="#fff8df" stroke-width="3"/>
    <circle cx="1198.0" cy="872.0" r="16" fill="#ffd35c" opacity="0.46" stroke="#fff8df" stroke-width="3"/>
    <circle cx="1298.0" cy="881.0" r="13" fill="#ffd35c" opacity="0.48" stroke="#fff8df" stroke-width="3"/>
  </g>
</svg>
