<svg xmlns="http://www.w3.org/2000/svg" width="1600" height="1000" viewBox="0 0 1600 1000" role="img" aria-labelledby="title desc">
  <title id="title">Visual entonym memory image for خر؛رخ</title>
  <desc id="desc">A silent pair-specific visual memory image. Neighborhood: الصوت والكلام والاسم. The icon clusters are generated from layered Arabic semantic terms and roots: ماء؛ صوت؛ يوم؛ ارض؛ ريح؛ صوت، نطق، تسمية، علامة؛ انف؛ لبن؛ خدر؛ اخر؛ خبر؛ خرب؛ خرت؛ خرج.</desc>
  <defs>
    <linearGradient id="posterBg" x1="0" y1="0" x2="1" y2="1">
      <stop offset="0%" stop-color="#162f44"/>
      <stop offset="48%" stop-color="#3c6d8d"/>
      <stop offset="100%" stop-color="#b6e2e8"/>
    </linearGradient>
    <radialGradient id="warmGlow" cx="68%" cy="55%" r="46%">
      <stop offset="0%" stop-color="#dfffff" stop-opacity=".88"/>
      <stop offset="62%" stop-color="#dfffff" stop-opacity=".24"/>
      <stop offset="100%" stop-color="#dfffff" stop-opacity="0"/>
    </radialGradient>
    <filter id="posterShadow" x="-20%" y="-20%" width="140%" height="150%">
      <feDropShadow dx="0" dy="22" stdDeviation="22" flood-color="#140d08" flood-opacity=".32"/>
    </filter>
    <filter id="hardInk" x="-20%" y="-20%" width="140%" height="150%">
      <feDropShadow dx="6" dy="8" stdDeviation="0" flood-color="#12100c" flood-opacity=".34"/>
    </filter>
    <style>
      .ink { stroke: #16120d; stroke-width: 8; stroke-linecap: round; stroke-linejoin: round; }
      .thin { stroke: #16120d; stroke-width: 5; stroke-linecap: round; stroke-linejoin: round; }
    </style>
  </defs>
  <rect width="1600" height="1000" fill="url(#posterBg)"/>
  <rect width="1600" height="1000" fill="url(#warmGlow)"/>
  <circle cx="1454" cy="782" r="31" fill="#9ee6ff" opacity="0.08"/>
  <circle cx="1115" cy="867" r="14" fill="#fff8df" opacity="0.11"/>
  <circle cx="776" cy="102" r="31" fill="#9ee6ff" opacity="0.13"/>
  <circle cx="437" cy="187" r="14" fill="#fff8df" opacity="0.16"/>
  <circle cx="98" cy="272" r="31" fill="#9ee6ff" opacity="0.08"/>
  <circle cx="1219" cy="357" r="14" fill="#fff8df" opacity="0.11"/>
  <circle cx="880" cy="442" r="31" fill="#9ee6ff" opacity="0.13"/>
  <circle cx="541" cy="527" r="14" fill="#fff8df" opacity="0.16"/>
  <circle cx="202" cy="612" r="31" fill="#9ee6ff" opacity="0.08"/>
  <circle cx="1323" cy="697" r="14" fill="#fff8df" opacity="0.11"/>
  <g filter="url(#posterShadow)" opacity=".36">
    
    <g id="poster-sound-strings">
      <path d="M344 220 C560 418 552 620 340 818 M564 180 C744 400 744 600 564 820 M800 160 C900 384 900 616 800 840 M1036 180 C856 400 856 600 1036 820 M1256 220 C1040 418 1048 620 1260 818" fill="none" stroke="#fff8df" stroke-width="16" stroke-linecap="round" opacity=".8"/>
      <circle cx="800" cy="500" r="118" fill="#9ee6ff" class="ink"/>
      <circle cx="800" cy="500" r="48" fill="#dfffff"/>
    </g>
  </g>
  <g id="pair-signature-mural" filter="url(#hardInk)">
    
    <g opacity=".98">
      
      <path d="M154 742 C380 284 602 788 816 408 C1032 28 1194 610 1460 230" fill="none" stroke="#fff8df" stroke-width="34" stroke-linecap="round" opacity=".72"/>
      <path d="M154 742 C380 284 602 788 816 408 C1032 28 1194 610 1460 230" fill="none" stroke="#dfffff" stroke-width="12" stroke-linecap="round" opacity=".86"/>
      <g transform="rotate(-10.0 323.0 283.0)">
      <g opacity=".88">
        <rect x="264.1" y="168.9" width="117.8" height="217.1" rx="29.4" fill="#fff8df" class="thin"/>
        <path d="M286.2 157.9 L359.8 157.9 L345.1 194.7 L300.9 194.7Z" fill="#9ee6ff" class="thin"/>
        <path d="M278.8 272.0 C315.6 238.8 341.4 308.8 367.2 279.3" fill="none" stroke="#dfffff" stroke-width="16.6" stroke-linecap="round"/>
      </g></g><g transform="rotate(-18.0 534.0 580.0)">
      <g opacity=".86">
        <path d="M450.6 652.3 C503.4 602.2 564.6 602.2 617.4 652.3" fill="none" stroke="#dfffff" stroke-width="19.5" stroke-linecap="round"/>
        <circle cx="484.0" cy="580.0" r="30.6" fill="#9ee6ff" class="thin"/>
        <circle cx="534.0" cy="555.0" r="36.1" fill="#fff8df" class="thin"/>
        <circle cx="586.8" cy="580.0" r="30.6" fill="#9ee6ff" class="thin"/>
      </g></g><g transform="rotate(19.0 760.0 313.0)">
      <g opacity=".86">
        <path d="M760.0 197.7 C681.9 301.8 694.9 376.2 760.0 391.1 C830.7 372.5 830.7 301.8 760.0 197.7Z" fill="#fff8df" class="thin"/>
        <path d="M639.1 413.4 C707.9 378.1 808.4 446.9 886.5 402.3" fill="none" stroke="#dfffff" stroke-width="24.2" stroke-linecap="round"/>
      </g></g><g transform="rotate(-10.0 1077.0 608.0)">
      <g opacity=".86">
        <circle cx="1023.4" cy="608.0" r="31.0" fill="#9ee6ff" class="thin"/>
        <path d="M1051.6 582.6 C1093.9 544.5 1093.9 671.5 1051.6 633.4" fill="#9ee6ff" class="thin"/>
        <path d="M1096.7 534.7 C1175.7 593.9 1175.7 622.1 1096.7 681.3" fill="none" stroke="#dfffff" stroke-width="16.9" stroke-linecap="round"/>
        <path d="M1136.2 498.0 C1232.1 579.8 1232.1 636.2 1136.2 718.0" fill="none" stroke="#fff8df" stroke-width="11.3" stroke-linecap="round" opacity=".72"/>
      </g></g><g transform="rotate(-20.0 1284.0 277.0)">
      <g opacity=".86">
        <path d="M1284.0 160.4 C1205.0 265.7 1218.2 340.9 1284.0 356.0 C1355.4 337.2 1355.4 265.7 1284.0 160.4Z" fill="#9ee6ff" class="thin"/>
        <path d="M1161.8 378.5 C1231.4 342.8 1332.9 412.4 1411.8 367.2" fill="none" stroke="#dfffff" stroke-width="24.4" stroke-linecap="round"/>
      </g></g><g transform="rotate(11.0 711.0 810.0)">
      <g opacity=".86">
        <circle cx="656.7" cy="810.0" r="31.5" fill="#dfffff" class="thin"/>
        <path d="M685.3 784.3 C728.2 745.6 728.2 874.4 685.3 835.7" fill="#dfffff" class="thin"/>
        <path d="M731.0 735.6 C811.1 795.7 811.1 824.3 731.0 884.4" fill="none" stroke="#dfffff" stroke-width="17.2" stroke-linecap="round"/>
        <path d="M771.1 698.5 C868.3 781.4 868.3 838.6 771.1 921.5" fill="none" stroke="#fff8df" stroke-width="11.4" stroke-linecap="round" opacity=".72"/>
      </g></g><g transform="rotate(-21.0 1078.0 149.0)">
      <g opacity=".84">
        <path d="M1187.6 160.5 L1244.3 166.5" stroke="#dfffff" stroke-width="19.0" stroke-linecap="round"/><path d="M1147.4 234.6 L1183.2 278.9" stroke="#dfffff" stroke-width="19.0" stroke-linecap="round"/><path d="M1066.5 258.6 L1060.5 315.3" stroke="#dfffff" stroke-width="19.0" stroke-linecap="round"/><path d="M992.4 218.4 L948.1 254.2" stroke="#dfffff" stroke-width="19.0" stroke-linecap="round"/><path d="M968.4 137.5 L911.7 131.5" stroke="#dfffff" stroke-width="19.0" stroke-linecap="round"/><path d="M1008.6 63.4 L972.8 19.1" stroke="#dfffff" stroke-width="19.0" stroke-linecap="round"/><path d="M1089.5 39.4 L1095.5 -17.3" stroke="#dfffff" stroke-width="19.0" stroke-linecap="round"/><path d="M1163.6 79.6 L1207.9 43.8" stroke="#dfffff" stroke-width="19.0" stroke-linecap="round"/>
        <circle cx="1078.0" cy="149.0" r="79.8" fill="#244b68" class="thin"/>
        <circle cx="1112.2" cy="118.6" r="64.6" fill="#162f44" opacity=".5"/>
      </g></g>
      <path d="M1255.0 444.0 L1297.0 444.0" stroke="#dfffff" stroke-width="8" stroke-linecap="round" opacity="0.18" transform="rotate(128 1276.0 444.0)"/>
      <path d="M1390.5 493.0 L1451.5 493.0" stroke="#fff8df" stroke-width="8" stroke-linecap="round" opacity="0.23" transform="rotate(159 1421.0 493.0)"/>
      <path d="M166.0 542.0 L246.0 542.0" stroke="#dfffff" stroke-width="8" stroke-linecap="round" opacity="0.28" transform="rotate(10 206.0 542.0)"/>
      <path d="M331.5 591.0 L370.5 591.0" stroke="#fff8df" stroke-width="8" stroke-linecap="round" opacity="0.33" transform="rotate(41 351.0 591.0)"/>
      <path d="M467.0 640.0 L525.0 640.0" stroke="#dfffff" stroke-width="8" stroke-linecap="round" opacity="0.38" transform="rotate(72 496.0 640.0)"/>
      <path d="M602.5 689.0 L679.5 689.0" stroke="#fff8df" stroke-width="8" stroke-linecap="round" opacity="0.18" transform="rotate(103 641.0 689.0)"/>
      <path d="M768.0 738.0 L804.0 738.0" stroke="#dfffff" stroke-width="8" stroke-linecap="round" opacity="0.23" transform="rotate(134 786.0 738.0)"/>
      <path d="M903.5 787.0 L958.5 787.0" stroke="#fff8df" stroke-width="8" stroke-linecap="round" opacity="0.28" transform="rotate(165 931.0 787.0)"/>
      <path d="M1039.0 836.0 L1113.0 836.0" stroke="#dfffff" stroke-width="8" stroke-linecap="round" opacity="0.33" transform="rotate(16 1076.0 836.0)"/>
      <path d="M1174.5 125.0 L1267.5 125.0" stroke="#fff8df" stroke-width="8" stroke-linecap="round" opacity="0.38" transform="rotate(47 1221.0 125.0)"/>
      <path d="M1340.0 174.0 L1392.0 174.0" stroke="#dfffff" stroke-width="8" stroke-linecap="round" opacity="0.18" transform="rotate(78 1366.0 174.0)"/>
      <path d="M115.5 223.0 L186.5 223.0" stroke="#fff8df" stroke-width="8" stroke-linecap="round" opacity="0.23" transform="rotate(109 151.0 223.0)"/>
    </g>
  </g>
  <g id="semantic-layer-icons" filter="url(#posterShadow)">
    
    <g transform="rotate(1.0 314.0 251.0)" opacity=".92">
      <path d="M199.0 251.0 C159.0 205.0 269.0 160.0 354.0 172.0 C469.0 200.0 424.0 302.0 359.0 342.0 C274.0 350.0 169.0 297.0 199.0 251.0Z" fill="#9ee6ff" opacity=".28" stroke="#dfffff" stroke-width="6"/>
      
      <g opacity=".86">
        <path d="M204.8 164.8 C178.8 199.5 183.1 224.3 204.8 229.3 C228.4 223.1 228.4 199.5 204.8 164.8Z" fill="#9ee6ff" class="thin"/>
        <path d="M164.5 236.7 C187.4 224.9 220.9 247.9 247.0 233.0" fill="none" stroke="#dfffff" stroke-width="8.1" stroke-linecap="round"/>
      </g>
      <g opacity=".86">
        <circle cx="266.8" cy="211.2" r="16.3" fill="#244b68" class="thin"/>
        <path d="M281.6 197.9 C303.8 177.9 303.8 244.5 281.6 224.6" fill="#244b68" class="thin"/>
        <path d="M305.3 172.8 C346.7 203.8 346.7 218.6 305.3 249.7" fill="none" stroke="#dfffff" stroke-width="8.9" stroke-linecap="round"/>
        <path d="M326.0 153.5 C376.3 196.4 376.3 226.0 326.0 269.0" fill="none" stroke="#fff8df" stroke-width="5.9" stroke-linecap="round" opacity=".72"/>
      </g>
      <g opacity=".84">
        <path d="M443.9 230.4 L460.4 230.9" stroke="#dfffff" stroke-width="5.5" stroke-linecap="round"/><path d="M433.8 252.6 L445.0 264.6" stroke="#dfffff" stroke-width="5.5" stroke-linecap="round"/><path d="M410.9 261.1 L410.3 277.6" stroke="#dfffff" stroke-width="5.5" stroke-linecap="round"/><path d="M388.7 251.0 L376.6 262.2" stroke="#dfffff" stroke-width="5.5" stroke-linecap="round"/><path d="M380.1 228.1 L363.6 227.6" stroke="#dfffff" stroke-width="5.5" stroke-linecap="round"/><path d="M390.2 205.9 L379.0 193.8" stroke="#dfffff" stroke-width="5.5" stroke-linecap="round"/><path d="M413.1 197.4 L413.7 180.9" stroke="#dfffff" stroke-width="5.5" stroke-linecap="round"/><path d="M435.3 207.5 L447.4 196.2" stroke="#dfffff" stroke-width="5.5" stroke-linecap="round"/>
        <circle cx="412.0" cy="229.2" r="23.1" fill="#fff8df" class="thin"/>
        <circle cx="421.9" cy="220.4" r="18.7" fill="#162f44" opacity=".5"/>
      </g>
      <g opacity=".86">
        <path d="M211.8 270.9 C191.6 297.8 195.0 317.0 211.8 320.8 C230.0 316.0 230.0 297.8 211.8 270.9Z" fill="#244b68" class="thin"/>
        <path d="M180.6 326.6 C198.4 317.5 224.3 335.2 244.4 323.7" fill="none" stroke="#dfffff" stroke-width="6.2" stroke-linecap="round"/>
      </g>
      <g opacity=".78">
        <polygon points="367.3,305.4 335.3,332.3 294.8,323.3 304.9,283.4 342.3,267.0" fill="#dfffff" class="thin"/>
        <circle cx="327.9" cy="302.7" r="7.0" fill="#dfffff"/>
      </g>
    </g>

    <g transform="rotate(-5.0 1248.0 257.0)" opacity=".92">
      <path d="M1121.0 257.0 C1091.0 200.0 1211.0 163.0 1278.0 175.0 C1405.0 193.0 1368.0 321.0 1285.0 351.0 C1218.0 359.0 1101.0 314.0 1121.0 257.0Z" fill="#fff8df" opacity=".28" stroke="#244b68" stroke-width="6"/>
      
      <g opacity=".86">
        <circle cx="1122.3" cy="220.2" r="13.4" fill="#fff8df" class="thin"/>
        <path d="M1134.5 209.2 C1152.8 192.7 1152.8 247.6 1134.5 231.1" fill="#fff8df" class="thin"/>
        <path d="M1154.1 188.4 C1188.2 214.1 1188.2 226.3 1154.1 251.9" fill="none" stroke="#dfffff" stroke-width="7.3" stroke-linecap="round"/>
        <path d="M1171.1 172.6 C1212.6 208.0 1212.6 232.4 1171.1 267.7" fill="none" stroke="#fff8df" stroke-width="4.9" stroke-linecap="round" opacity=".72"/>
      </g>
      <g opacity=".78">
        <polygon points="1293.0,224.7 1274.9,242.9 1254.4,257.8 1236.5,239.8 1221.7,219.7 1239.5,202.2 1259.3,187.5 1276.5,205.1" fill="#dfffff" class="thin"/>
        <circle cx="1256.9" cy="222.2" r="6.9" fill="#dfffff"/>
      </g>
      <g opacity=".88">
        <rect x="1339.6" y="175.2" width="37.1" height="68.4" rx="9.3" fill="#fff8df" class="thin"/>
        <path d="M1346.6 171.7 L1369.8 171.7 L1365.2 183.3 L1351.2 183.3Z" fill="#dfffff" class="thin"/>
        <path d="M1344.3 207.7 C1355.9 197.2 1364.0 219.3 1372.1 210.0" fill="none" stroke="#dfffff" stroke-width="5.2" stroke-linecap="round"/>
      </g>
      <g opacity=".88">
        <path d="M1149.5 344.1 C1146.5 314.1 1153.5 299.1 1149.5 277.1" fill="none" stroke="#16120d" stroke-width="9.0" stroke-linecap="round"/>
        <path d="M1149.5 283.1 C1113.5 271.1 1111.5 303.1 1149.5 293.1 C1188.5 303.1 1185.5 271.1 1149.5 283.1Z" fill="#fff8df" class="thin"/>
        <circle cx="1139.5" cy="307.1" r="9.0" fill="#dfffff" class="thin"/>
        <circle cx="1161.5" cy="310.1" r="8.0" fill="#fff8df" class="thin"/>
      </g>
      <g opacity=".78">
        <polygon points="1261.2,313.2 1254.3,343.7 1223.5,338.7 1195.6,325.5 1207.4,297.1 1225.9,273.2 1250.5,290.8" fill="#9ee6ff" class="thin"/>
        <circle cx="1231.9" cy="311.1" r="8.4" fill="#dfffff"/>
      </g>
    </g>

    <g transform="rotate(6.0 349.0 732.0)" opacity=".92">
      <path d="M199.0 732.0 C173.0 654.0 331.0 636.0 375.0 648.0 C525.0 662.0 507.0 802.0 367.0 828.0 C323.0 836.0 183.0 810.0 199.0 732.0Z" fill="#9ee6ff" opacity=".28" stroke="#dfffff" stroke-width="6"/>
      
      <g opacity=".84">
        <path d="M255.1 700.2 L273.1 703.7" stroke="#dfffff" stroke-width="6.1" stroke-linecap="round"/><path d="M240.1 722.8 L250.4 737.9" stroke="#dfffff" stroke-width="6.1" stroke-linecap="round"/><path d="M213.6 728.2 L210.1 746.1" stroke="#dfffff" stroke-width="6.1" stroke-linecap="round"/><path d="M191.0 713.2 L175.9 723.5" stroke="#dfffff" stroke-width="6.1" stroke-linecap="round"/><path d="M185.6 686.7 L167.7 683.2" stroke="#dfffff" stroke-width="6.1" stroke-linecap="round"/><path d="M200.6 664.1 L190.3 648.9" stroke="#dfffff" stroke-width="6.1" stroke-linecap="round"/><path d="M227.1 658.7 L230.6 640.7" stroke="#dfffff" stroke-width="6.1" stroke-linecap="round"/><path d="M249.7 673.7 L264.9 663.4" stroke="#dfffff" stroke-width="6.1" stroke-linecap="round"/>
        <circle cx="220.4" cy="693.4" r="25.6" fill="#244b68" class="thin"/>
        <circle cx="231.3" cy="683.7" r="20.7" fill="#162f44" opacity=".5"/>
      </g>
      <g opacity=".86">
        <path d="M357.5 679.6 C335.2 709.3 338.9 730.5 357.5 734.7 C377.6 729.4 377.6 709.3 357.5 679.6Z" fill="#dfffff" class="thin"/>
        <path d="M323.0 741.1 C342.6 731.0 371.3 750.6 393.5 737.9" fill="none" stroke="#dfffff" stroke-width="6.9" stroke-linecap="round"/>
      </g>
      <g transform="rotate(-6 456.6 684.4)" opacity=".84">
        <path d="M424.2 678.4 C413.4 644.8 451.8 641.2 455.4 676.0 C459.0 641.2 498.6 644.8 489.0 678.4 C474.6 712.0 439.8 712.0 424.2 678.4Z" fill="#9ee6ff" class="thin"/>
        <path d="M423.0 716.8 C444.6 704.8 469.8 727.6 491.4 714.4" fill="none" stroke="#fff8df" stroke-width="6.0" stroke-linecap="round"/>
      </g>
      <g transform="rotate(-21 249.4 771.1)" opacity=".84">
        <path d="M215.3 764.8 C204.0 729.5 244.3 725.7 248.1 762.3 C251.9 725.7 293.5 729.5 283.4 764.8 C268.3 800.1 231.7 800.1 215.3 764.8Z" fill="#dfffff" class="thin"/>
        <path d="M214.1 805.1 C236.8 792.5 263.2 816.4 285.9 802.6" fill="none" stroke="#fff8df" stroke-width="6.3" stroke-linecap="round"/>
      </g>
      <g opacity=".86">
        <path d="M329.5 736.8 C298.8 777.7 303.9 806.9 329.5 812.7 C357.2 805.4 357.2 777.7 329.5 736.8Z" fill="#fff8df" class="thin"/>
        <path d="M282.0 821.5 C309.0 807.6 348.5 834.6 379.1 817.1" fill="none" stroke="#dfffff" stroke-width="9.5" stroke-linecap="round"/>
      </g>
    </g>

    <g transform="rotate(-13.0 1232.0 706.0)" opacity=".92">
      <path d="M1084.0 706.0 C1057.0 651.0 1188.0 607.0 1259.0 619.0 C1407.0 634.0 1363.0 778.0 1276.0 805.0 C1205.0 813.0 1067.0 761.0 1084.0 706.0Z" fill="#fff8df" opacity=".28" stroke="#244b68" stroke-width="6"/>
      
      <g opacity=".78">
        <polygon points="1143.3,677.5 1123.8,711.0 1088.9,694.3 1060.9,668.3 1084.8,638.7 1115.7,617.3 1138.8,646.9" fill="#9ee6ff" class="thin"/>
        <circle cx="1109.0" cy="664.4" r="10.1" fill="#dfffff"/>
      </g>
      <g opacity=".78">
        <polygon points="1240.2,671.0 1213.6,704.2 1162.8,682.0 1186.2,632.1 1239.5,620.2" fill="#fff8df" class="thin"/>
        <circle cx="1211.5" cy="663.4" r="9.2" fill="#dfffff"/>
      </g>
      <g opacity=".78">
        <polygon points="1353.4,692.0 1335.1,723.5 1303.1,706.5 1276.7,682.3 1300.2,655.4 1329.1,635.3 1371.5,651.4" fill="#dfffff" class="thin"/>
        <circle cx="1322.0" cy="679.4" r="10.1" fill="#dfffff"/>
      </g>
      <g opacity=".86">
        <path d="M1087.2 775.7 C1109.2 754.8 1134.8 754.8 1156.8 775.7" fill="none" stroke="#dfffff" stroke-width="8.1" stroke-linecap="round"/>
        <circle cx="1101.1" cy="745.5" r="12.8" fill="#244b68" class="thin"/>
        <circle cx="1122.0" cy="735.1" r="15.1" fill="#fff8df" class="thin"/>
        <circle cx="1144.0" cy="745.5" r="12.8" fill="#244b68" class="thin"/>
      </g>
      <g opacity=".78">
        <polygon points="1248.7,786.1 1214.9,805.2 1193.4,773.0 1193.7,734.8 1231.7,732.4 1264.3,751.4" fill="#fff8df" class="thin"/>
        <circle cx="1224.5" cy="763.5" r="8.0" fill="#dfffff"/>
      </g>
    </g>
  </g>
  <g id="root-constellation">
    <path d="M1139.0 353.0 C748.0 311.0 748.0 376.0 357.0 349.0" fill="none" stroke="#fff8df" stroke-width="4" stroke-linecap="round" opacity="0.35"/>
    <path d="M357.0 349.0 C384.0 386.0 384.0 695.0 411.0 737.0" fill="none" stroke="#fff8df" stroke-width="6" stroke-linecap="round" opacity="0.43"/>
    <path d="M411.0 737.0 C648.0 673.0 648.0 582.0 885.0 545.0" fill="none" stroke="#fff8df" stroke-width="9" stroke-linecap="round" opacity="0.25"/>
    <path d="M885.0 545.0 C831.5 587.0 831.5 352.0 778.0 416.0" fill="none" stroke="#fff8df" stroke-width="10" stroke-linecap="round" opacity="0.34"/>
    <path d="M778.0 416.0 C724.5 404.0 724.5 329.0 671.0 287.0" fill="none" stroke="#fff8df" stroke-width="4" stroke-linecap="round" opacity="0.24"/>
    <path d="M671.0 287.0 C512.0 278.0 512.0 499.0 353.0 511.0" fill="none" stroke="#fff8df" stroke-width="6" stroke-linecap="round" opacity="0.27"/>
    <path d="M353.0 511.0 C299.5 448.0 299.5 373.0 246.0 382.0" fill="none" stroke="#fff8df" stroke-width="7" stroke-linecap="round" opacity="0.30"/>
    <path d="M246.0 382.0 C421.0 406.0 421.0 289.0 596.0 352.0" fill="none" stroke="#fff8df" stroke-width="10" stroke-linecap="round" opacity="0.23"/>
    <path d="M596.0 352.0 C771.0 303.0 771.0 346.0 946.0 322.0" fill="none" stroke="#fff8df" stroke-width="6" stroke-linecap="round" opacity="0.41"/>
    <circle cx="1139.0" cy="353.0" r="22" fill="#fff8df" opacity=".52" stroke="#16120d" stroke-width="4"/>
    <circle cx="357.0" cy="349.0" r="29" fill="#9ee6ff" opacity=".52" stroke="#16120d" stroke-width="4"/>
    <circle cx="357.0" cy="349.0" r="43" fill="none" stroke="#dfffff" stroke-width="4" opacity=".18"/>
    <circle cx="411.0" cy="737.0" r="24" fill="#fff8df" opacity=".52" stroke="#16120d" stroke-width="4"/>
    <circle cx="885.0" cy="545.0" r="36" fill="#fff8df" opacity=".52" stroke="#16120d" stroke-width="4"/>
    <circle cx="885.0" cy="545.0" r="50" fill="none" stroke="#dfffff" stroke-width="4" opacity=".18"/>
    <circle cx="778.0" cy="416.0" r="36" fill="#dfffff" opacity=".52" stroke="#16120d" stroke-width="4"/>
    <circle cx="778.0" cy="416.0" r="50" fill="none" stroke="#dfffff" stroke-width="4" opacity=".18"/>
    <circle cx="671.0" cy="287.0" r="36" fill="#9ee6ff" opacity=".52" stroke="#16120d" stroke-width="4"/>
    <circle cx="671.0" cy="287.0" r="50" fill="none" stroke="#dfffff" stroke-width="4" opacity=".18"/>
    <circle cx="353.0" cy="511.0" r="27" fill="#fff8df" opacity=".52" stroke="#16120d" stroke-width="4"/>
    <circle cx="246.0" cy="382.0" r="27" fill="#dfffff" opacity=".52" stroke="#16120d" stroke-width="4"/>
    <circle cx="596.0" cy="352.0" r="23" fill="#fff8df" opacity=".52" stroke="#16120d" stroke-width="4"/>
    <circle cx="596.0" cy="352.0" r="37" fill="none" stroke="#dfffff" stroke-width="4" opacity=".18"/>
    <circle cx="946.0" cy="322.0" r="20" fill="#9ee6ff" opacity=".52" stroke="#16120d" stroke-width="4"/>
  </g>
</svg>
