<svg xmlns="http://www.w3.org/2000/svg" width="1600" height="1000" viewBox="0 0 1600 1000" role="img" aria-labelledby="title desc">
  <title id="title">Visual entonym memory image for بح؛حب</title>
  <desc id="desc">A silent visual metaphor: emptiness shifts into measure, balance, value, and change of state.</desc>
  <defs>
    <linearGradient id="posterBg" x1="0" y1="0" x2="1" y2="1">
      <stop offset="0%" stop-color="#2b332d"/>
      <stop offset="48%" stop-color="#7a7654"/>
      <stop offset="100%" stop-color="#e4bd61"/>
    </linearGradient>
    <radialGradient id="warmGlow" cx="65%" cy="32%" r="46%">
      <stop offset="0%" stop-color="#fff1a4" stop-opacity=".88"/>
      <stop offset="62%" stop-color="#fff1a4" stop-opacity=".24"/>
      <stop offset="100%" stop-color="#fff1a4" stop-opacity="0"/>
    </radialGradient>
    <filter id="posterShadow" x="-20%" y="-20%" width="140%" height="150%">
      <feDropShadow dx="0" dy="22" stdDeviation="22" flood-color="#140d08" flood-opacity=".32"/>
    </filter>
    <filter id="hardInk" x="-20%" y="-20%" width="140%" height="150%">
      <feDropShadow dx="6" dy="8" stdDeviation="0" flood-color="#12100c" flood-opacity=".34"/>
    </filter>
    <style>
      .ink { stroke: #16120d; stroke-width: 8; stroke-linecap: round; stroke-linejoin: round; }
      .thin { stroke: #16120d; stroke-width: 5; stroke-linecap: round; stroke-linejoin: round; }
    </style>
  </defs>
  <rect width="1600" height="1000" fill="url(#posterBg)"/>
  <rect width="1600" height="1000" fill="url(#warmGlow)"/>
  <circle cx="1430" cy="874" r="27" fill="#ffd058" opacity="0.08"/>
  <circle cx="1083" cy="581" r="10" fill="#fff8df" opacity="0.11"/>
  <circle cx="736" cy="288" r="27" fill="#ffd058" opacity="0.13"/>
  <circle cx="389" cy="845" r="10" fill="#fff8df" opacity="0.16"/>
  <circle cx="1502" cy="552" r="27" fill="#ffd058" opacity="0.08"/>
  <circle cx="1155" cy="259" r="10" fill="#fff8df" opacity="0.11"/>
  <circle cx="808" cy="816" r="27" fill="#ffd058" opacity="0.13"/>
  <circle cx="461" cy="523" r="10" fill="#fff8df" opacity="0.16"/>
  <circle cx="114" cy="230" r="27" fill="#ffd058" opacity="0.08"/>
  <circle cx="1227" cy="787" r="10" fill="#fff8df" opacity="0.11"/>
  <g filter="url(#posterShadow)">
    
    <g id="poster-value-market-piles">
      <path d="M256 754 C486 600 696 596 886 754 C1056 896 1290 838 1460 674" fill="none" stroke="#fff1a4" stroke-width="26" stroke-linecap="round"/>
      <ellipse cx="438" cy="756" rx="88" ry="28" fill="#ffd058" class="thin"/>
      <ellipse cx="438" cy="732" rx="88" ry="28" fill="#ffd058" class="thin"/>
      <ellipse cx="438" cy="708" rx="88" ry="28" fill="#ffd058" class="thin"/>
      <ellipse cx="438" cy="684" rx="88" ry="28" fill="#ffd058" class="thin"/>
      <ellipse cx="438" cy="660" rx="88" ry="28" fill="#ffd058" class="thin"/>
      <ellipse cx="438" cy="636" rx="88" ry="28" fill="#ffd058" class="thin"/>
      <ellipse cx="438" cy="612" rx="88" ry="28" fill="#ffd058" class="thin"/>
      <ellipse cx="438" cy="588" rx="88" ry="28" fill="#ffd058" class="thin"/>
      <ellipse cx="694" cy="692" rx="88" ry="28" fill="#fff8df" class="thin"/>
      <ellipse cx="694" cy="668" rx="88" ry="28" fill="#fff8df" class="thin"/>
      <ellipse cx="694" cy="644" rx="88" ry="28" fill="#fff8df" class="thin"/>
      <ellipse cx="694" cy="620" rx="88" ry="28" fill="#fff8df" class="thin"/>
      <ellipse cx="694" cy="596" rx="88" ry="28" fill="#fff8df" class="thin"/>
      <ellipse cx="694" cy="572" rx="88" ry="28" fill="#fff8df" class="thin"/>
      <ellipse cx="980" cy="740" rx="88" ry="28" fill="#ffd058" class="thin"/>
      <ellipse cx="980" cy="716" rx="88" ry="28" fill="#ffd058" class="thin"/>
      <ellipse cx="980" cy="692" rx="88" ry="28" fill="#ffd058" class="thin"/>
      <ellipse cx="980" cy="668" rx="88" ry="28" fill="#ffd058" class="thin"/>
      <ellipse cx="980" cy="644" rx="88" ry="28" fill="#ffd058" class="thin"/>
      <ellipse cx="980" cy="620" rx="88" ry="28" fill="#ffd058" class="thin"/>
      <ellipse cx="980" cy="596" rx="88" ry="28" fill="#ffd058" class="thin"/>
      <ellipse cx="980" cy="572" rx="88" ry="28" fill="#ffd058" class="thin"/>
      <ellipse cx="980" cy="548" rx="88" ry="28" fill="#ffd058" class="thin"/>
      <ellipse cx="980" cy="524" rx="88" ry="28" fill="#ffd058" class="thin"/>
      <path d="M1140 310 C1246 238 1368 258 1438 360 C1310 326 1234 366 1140 310Z" fill="#fff8df" class="ink"/>
    </g>
  </g>
</svg>
