<svg xmlns="http://www.w3.org/2000/svg" width="1600" height="1000" viewBox="0 0 1600 1000" role="img" aria-labelledby="title desc">
  <title id="title">Visual entonym memory image for شس</title>
  <desc id="desc">A silent pair-specific visual memory image. Neighborhood: القدر والقيمة والحال. The icon clusters are generated from layered Arabic semantic terms and roots: مكان؛ ارض؛ خلق؛ نعل؛ شءس؛ قدر، قيمة، زيادة/نقص، حال؛ غليظ؛ نظر؛ شمس؛ شرس؛ شخس؛ شسا؛ شسع؛ شكس.</desc>
  <defs>
    <linearGradient id="posterBg" x1="0" y1="0" x2="1" y2="1">
      <stop offset="0%" stop-color="#2b332d"/>
      <stop offset="48%" stop-color="#7a7654"/>
      <stop offset="100%" stop-color="#e4bd61"/>
    </linearGradient>
    <radialGradient id="warmGlow" cx="49%" cy="51%" r="46%">
      <stop offset="0%" stop-color="#fff1a4" stop-opacity=".88"/>
      <stop offset="62%" stop-color="#fff1a4" stop-opacity=".24"/>
      <stop offset="100%" stop-color="#fff1a4" stop-opacity="0"/>
    </radialGradient>
    <filter id="posterShadow" x="-20%" y="-20%" width="140%" height="150%">
      <feDropShadow dx="0" dy="22" stdDeviation="22" flood-color="#140d08" flood-opacity=".32"/>
    </filter>
    <filter id="hardInk" x="-20%" y="-20%" width="140%" height="150%">
      <feDropShadow dx="6" dy="8" stdDeviation="0" flood-color="#12100c" flood-opacity=".34"/>
    </filter>
    <style>
      .ink { stroke: #16120d; stroke-width: 8; stroke-linecap: round; stroke-linejoin: round; }
      .thin { stroke: #16120d; stroke-width: 5; stroke-linecap: round; stroke-linejoin: round; }
    </style>
  </defs>
  <rect width="1600" height="1000" fill="url(#posterBg)"/>
  <rect width="1600" height="1000" fill="url(#warmGlow)"/>
  <circle cx="612" cy="498" r="33" fill="#ffd058" opacity="0.08"/>
  <circle cx="479" cy="789" r="16" fill="#fff8df" opacity="0.11"/>
  <circle cx="346" cy="230" r="33" fill="#ffd058" opacity="0.13"/>
  <circle cx="213" cy="521" r="16" fill="#fff8df" opacity="0.16"/>
  <circle cx="80" cy="812" r="33" fill="#ffd058" opacity="0.08"/>
  <circle cx="1407" cy="253" r="16" fill="#fff8df" opacity="0.11"/>
  <circle cx="1274" cy="544" r="33" fill="#ffd058" opacity="0.13"/>
  <circle cx="1141" cy="835" r="16" fill="#fff8df" opacity="0.16"/>
  <circle cx="1008" cy="276" r="33" fill="#ffd058" opacity="0.08"/>
  <circle cx="875" cy="567" r="16" fill="#fff8df" opacity="0.11"/>
  <g filter="url(#posterShadow)">
    
    <g id="poster-value-measure">
      <path d="M590 210 L1010 210 L942 832 L658 832Z" fill="#fff8df" opacity=".82" class="ink"/>
      <path d="M640 630 C764 552 842 708 962 620 L942 832 L658 832Z" fill="#ffd058" opacity=".88"/>
      <path d="M1084 300 L1216 300 M1084 408 L1266 408 M1084 516 L1216 516 M1084 624 L1266 624" stroke="#fff8df" stroke-width="18" stroke-linecap="round"/>
      <circle cx="404" cy="662" r="78" fill="#fff1a4" class="ink"/>
    </g>
  </g>
  <g id="semantic-layer-icons" filter="url(#posterShadow)">
    
    <g transform="rotate(-3.0 304.0 250.0)" opacity=".92">
      <path d="M188.0 250.0 C149.0 182.0 281.0 159.0 343.0 171.0 C459.0 198.0 436.0 302.0 327.0 341.0 C265.0 349.0 159.0 318.0 188.0 250.0Z" fill="#ffd058" opacity=".28" stroke="#fff1a4" stroke-width="6"/>
      
      <g opacity=".86">
        <path d="M211.8 175.2 C182.0 215.0 187.0 243.4 211.8 249.1 C238.8 242.0 238.8 215.0 211.8 175.2Z" fill="#4d5d45" class="thin"/>
        <path d="M165.7 257.6 C191.9 244.1 230.3 270.4 260.1 253.3" fill="none" stroke="#fff1a4" stroke-width="9.2" stroke-linecap="round"/>
      </g>
      <g opacity=".86">
        <path d="M284.9 187.2 C255.1 227.0 260.0 255.4 284.9 261.1 C311.9 254.0 311.9 227.0 284.9 187.2Z" fill="#ffd058" class="thin"/>
        <path d="M238.7 269.6 C265.0 256.1 303.4 282.4 333.2 265.3" fill="none" stroke="#fff1a4" stroke-width="9.2" stroke-linecap="round"/>
      </g>
      <g opacity=".78">
        <polygon points="441.5,234.0 419.8,282.7 369.5,265.6 338.6,223.2 378.0,188.8 429.5,183.1" fill="#4d5d45" class="thin"/>
        <circle cx="396.0" cy="229.2" r="10.5" fill="#fff1a4"/>
      </g>
      <g opacity=".78">
        <polygon points="220.7,296.4 193.8,318.6 173.4,290.4 182.0,257.1 214.4,267.8" fill="#4d5d45" class="thin"/>
        <circle cx="197.8" cy="285.7" r="6.4" fill="#fff1a4"/>
      </g>
      <g opacity=".78">
        <polygon points="345.4,337.3 308.0,342.0 271.5,335.0 275.3,298.1 289.9,264.5 324.4,276.4 353.6,297.7" fill="#ffd058" class="thin"/>
        <circle cx="308.9" cy="306.7" r="9.5" fill="#fff1a4"/>
      </g>
    </g>

    <g transform="rotate(-1.0 1228.0 287.0)" opacity=".92">
      <path d="M1118.0 287.0 C1071.0 222.0 1199.0 193.0 1275.0 205.0 C1385.0 240.0 1356.0 334.0 1257.0 381.0 C1181.0 389.0 1081.0 352.0 1118.0 287.0Z" fill="#fff8df" opacity=".28" stroke="#4d5d45" stroke-width="6"/>
      
      <g opacity=".86">
        <path d="M1112.5 201.7 C1081.0 243.7 1086.3 273.7 1112.5 279.7 C1141.0 272.2 1141.0 243.7 1112.5 201.7Z" fill="#4d5d45" class="thin"/>
        <path d="M1063.8 288.7 C1091.5 274.4 1132.0 302.2 1163.5 284.2" fill="none" stroke="#fff1a4" stroke-width="9.8" stroke-linecap="round"/>
      </g>
      <g opacity=".78">
        <polygon points="1228.4,259.5 1208.4,275.6 1191.4,256.3 1180.3,233.7 1202.5,221.7 1226.7,215.9 1233.1,239.9" fill="#4d5d45" class="thin"/>
        <circle cx="1210.9" cy="243.2" r="7.0" fill="#fff1a4"/>
      </g>
      <g opacity=".78">
        <polygon points="1359.3,247.0 1336.0,260.8 1309.2,260.1 1309.0,233.5 1322.6,210.9 1345.4,224.0" fill="#4d5d45" class="thin"/>
        <circle cx="1330.2" cy="239.2" r="6.0" fill="#fff1a4"/>
      </g>
      <g opacity=".78">
        <polygon points="1165.4,358.1 1135.6,362.0 1108.9,348.9 1120.3,321.5 1144.6,305.1 1162.2,328.4" fill="#fff1a4" class="thin"/>
        <circle cx="1139.5" cy="337.1" r="6.3" fill="#fff1a4"/>
      </g>
      <g opacity=".86">
        <ellipse cx="1225.6" cy="341.8" rx="24.6" ry="7.9" fill="#ffd058" class="thin"/>
        <ellipse cx="1225.6" cy="332.2" rx="24.6" ry="7.9" fill="#fff8df" class="thin"/>
        <ellipse cx="1225.6" cy="322.5" rx="24.6" ry="7.9" fill="#ffd058" class="thin"/>
        <path d="M1253.7 301.4 L1253.7 348.0 M1237.9 314.6 L1269.6 314.6" stroke="#16120d" stroke-width="5.0" stroke-linecap="round"/>
      </g>
    </g>

    <g transform="rotate(14.0 367.0 726.0)" opacity=".92">
      <path d="M248.0 726.0 C191.0 676.0 321.0 630.0 424.0 642.0 C543.0 687.0 497.0 765.0 413.0 822.0 C310.0 830.0 201.0 776.0 248.0 726.0Z" fill="#ffd058" opacity=".28" stroke="#fff1a4" stroke-width="6"/>
      
      <g opacity=".86">
        <path d="M245.4 653.5 C221.0 686.0 225.1 709.2 245.4 713.8 C267.4 708.0 267.4 686.0 245.4 653.5Z" fill="#fff1a4" class="thin"/>
        <path d="M207.7 720.8 C229.1 709.7 260.4 731.2 284.8 717.3" fill="none" stroke="#fff1a4" stroke-width="7.5" stroke-linecap="round"/>
      </g>
      <g transform="rotate(-4 365.5 676.4)" opacity=".84">
        <path d="M326.6 669.2 C313.6 628.9 359.7 624.6 364.0 666.4 C368.4 624.6 415.9 628.9 404.4 669.2 C387.1 709.6 345.3 709.6 326.6 669.2Z" fill="#4d5d45" class="thin"/>
        <path d="M325.2 715.3 C351.1 700.9 381.3 728.3 407.2 712.4" fill="none" stroke="#fff8df" stroke-width="7.2" stroke-linecap="round"/>
      </g>
      <g opacity=".86">
        <ellipse cx="473.7" cy="717.5" rx="37.0" ry="11.9" fill="#fff1a4" class="thin"/>
        <ellipse cx="473.7" cy="703.0" rx="37.0" ry="11.9" fill="#fff8df" class="thin"/>
        <ellipse cx="473.7" cy="688.5" rx="37.0" ry="11.9" fill="#fff1a4" class="thin"/>
        <path d="M515.9 656.8 L515.9 726.8 M492.2 676.6 L539.7 676.6" stroke="#16120d" stroke-width="6.6" stroke-linecap="round"/>
      </g>
      <g transform="rotate(-17 237.4 774.1)" opacity=".86">
        <path d="M237.4 817.6 C229.9 783.1 241.9 760.6 237.4 732.1" fill="none" stroke="#16120d" stroke-width="11.2" stroke-linecap="round"/>
        <path d="M237.4 765.1 C183.4 753.1 186.4 715.6 237.4 723.1 C228.4 741.1 235.9 753.1 237.4 765.1Z" fill="#ffd058" class="thin"/>
        <path d="M241.9 772.6 C289.9 763.6 294.4 727.6 246.4 727.6 C253.9 745.6 246.4 760.6 241.9 772.6Z" fill="#fff8df" class="thin"/>
      </g>
      <g opacity=".78">
        <polygon points="392.5,769.1 380.5,800.6 347.6,793.4 316.5,781.8 323.7,749.4 335.1,718.7 367.0,726.0 397.3,737.0" fill="#4d5d45" class="thin"/>
        <circle cx="357.5" cy="759.1" r="9.1" fill="#fff1a4"/>
      </g>
    </g>

    <g transform="rotate(-15.0 1216.0 745.0)" opacity=".92">
      <path d="M1072.0 745.0 C1041.0 681.0 1181.0 646.0 1247.0 658.0 C1391.0 677.0 1356.0 813.0 1251.0 844.0 C1185.0 852.0 1051.0 809.0 1072.0 745.0Z" fill="#fff8df" opacity=".28" stroke="#4d5d45" stroke-width="6"/>
      
      <g opacity=".84">
        <path d="M1124.1 723.6 L1140.3 725.3" stroke="#fff1a4" stroke-width="5.4" stroke-linecap="round"/><path d="M1112.7 744.7 L1122.9 757.3" stroke="#fff1a4" stroke-width="5.4" stroke-linecap="round"/><path d="M1089.7 751.5 L1088.0 767.6" stroke="#fff1a4" stroke-width="5.4" stroke-linecap="round"/><path d="M1068.7 740.1 L1056.1 750.3" stroke="#fff1a4" stroke-width="5.4" stroke-linecap="round"/><path d="M1061.9 717.1 L1045.7 715.4" stroke="#fff1a4" stroke-width="5.4" stroke-linecap="round"/><path d="M1073.3 696.0 L1063.1 683.4" stroke="#fff1a4" stroke-width="5.4" stroke-linecap="round"/><path d="M1096.3 689.2 L1098.0 673.1" stroke="#fff1a4" stroke-width="5.4" stroke-linecap="round"/><path d="M1117.3 700.6 L1129.9 690.5" stroke="#fff1a4" stroke-width="5.4" stroke-linecap="round"/>
        <circle cx="1093.0" cy="720.4" r="22.7" fill="#ffd058" class="thin"/>
        <circle cx="1102.7" cy="711.7" r="18.4" fill="#2b332d" opacity=".5"/>
      </g>
      <g opacity=".78">
        <polygon points="1253.3,716.7 1216.4,725.2 1180.8,713.9 1191.9,678.3 1218.9,653.4 1243.6,680.5" fill="#ffd058" class="thin"/>
        <circle cx="1217.5" cy="694.4" r="8.8" fill="#fff1a4"/>
      </g>
      <g opacity=".78">
        <polygon points="1383.4,720.7 1346.5,741.4 1305.3,748.0 1293.7,708.0 1296.2,666.9 1337.2,664.7 1376.1,675.9" fill="#fff1a4" class="thin"/>
        <circle cx="1333.0" cy="703.4" r="10.1" fill="#fff1a4"/>
      </g>
      <g opacity=".78">
        <polygon points="1151.6,794.6 1126.3,812.2 1100.1,827.5 1082.8,802.5 1067.7,776.7 1092.4,759.9 1117.6,744.8 1134.1,769.2" fill="#ffd058" class="thin"/>
        <circle cx="1109.0" cy="785.5" r="9.1" fill="#fff1a4"/>
      </g>
      <g opacity=".78">
        <polygon points="1225.9,824.3 1188.4,846.2 1170.1,807.1 1187.2,767.8 1224.3,788.6" fill="#fff1a4" class="thin"/>
        <circle cx="1200.5" cy="806.5" r="8.7" fill="#fff1a4"/>
      </g>
    </g>
  </g>
  <g id="root-constellation">
    <path d="M917.0 669.0 C791.5 644.0 791.5 233.0 666.0 172.0" fill="none" stroke="#fff8df" stroke-width="7" stroke-linecap="round" opacity="0.38"/>
    <path d="M666.0 172.0 C981.5 207.0 981.5 724.0 1297.0 749.0" fill="none" stroke="#fff8df" stroke-width="10" stroke-linecap="round" opacity="0.38"/>
    <path d="M1297.0 749.0 C1218.5 760.0 1218.5 225.0 1140.0 190.0" fill="none" stroke="#fff8df" stroke-width="6" stroke-linecap="round" opacity="0.40"/>
    <path d="M1140.0 190.0 C1241.5 177.0 1241.5 562.0 1343.0 551.0" fill="none" stroke="#fff8df" stroke-width="6" stroke-linecap="round" opacity="0.42"/>
    <path d="M1343.0 551.0 C1236.5 506.0 1236.5 577.0 1130.0 590.0" fill="none" stroke="#fff8df" stroke-width="6" stroke-linecap="round" opacity="0.26"/>
    <path d="M1130.0 590.0 C1209.5 589.0 1209.5 748.0 1289.0 793.0" fill="none" stroke="#fff8df" stroke-width="6" stroke-linecap="round" opacity="0.22"/>
    <path d="M1289.0 793.0 C894.5 792.0 894.5 659.0 500.0 660.0" fill="none" stroke="#fff8df" stroke-width="8" stroke-linecap="round" opacity="0.42"/>
    <path d="M500.0 660.0 C912.5 721.0 912.5 734.0 1325.0 735.0" fill="none" stroke="#fff8df" stroke-width="5" stroke-linecap="round" opacity="0.36"/>
    <path d="M1325.0 735.0 C1351.0 809.0 1351.0 660.0 1377.0 599.0" fill="none" stroke="#fff8df" stroke-width="10" stroke-linecap="round" opacity="0.39"/>
    <circle cx="917.0" cy="669.0" r="22" fill="#fff1a4" opacity=".52" stroke="#16120d" stroke-width="4"/>
    <circle cx="666.0" cy="172.0" r="26" fill="#ffd058" opacity=".52" stroke="#16120d" stroke-width="4"/>
    <circle cx="1297.0" cy="749.0" r="28" fill="#fff8df" opacity=".52" stroke="#16120d" stroke-width="4"/>
    <circle cx="1140.0" cy="190.0" r="34" fill="#fff1a4" opacity=".52" stroke="#16120d" stroke-width="4"/>
    <circle cx="1343.0" cy="551.0" r="31" fill="#ffd058" opacity=".52" stroke="#16120d" stroke-width="4"/>
    <circle cx="1130.0" cy="590.0" r="37" fill="#fff8df" opacity=".52" stroke="#16120d" stroke-width="4"/>
    <circle cx="1289.0" cy="793.0" r="25" fill="#fff1a4" opacity=".52" stroke="#16120d" stroke-width="4"/>
    <circle cx="500.0" cy="660.0" r="24" fill="#ffd058" opacity=".52" stroke="#16120d" stroke-width="4"/>
    <circle cx="1325.0" cy="735.0" r="17" fill="#fff8df" opacity=".52" stroke="#16120d" stroke-width="4"/>
    <circle cx="1377.0" cy="599.0" r="30" fill="#fff8df" opacity=".52" stroke="#16120d" stroke-width="4"/>
    <circle cx="1377.0" cy="599.0" r="44" fill="none" stroke="#fff1a4" stroke-width="4" opacity=".18"/>
  </g>
</svg>
