<svg xmlns="http://www.w3.org/2000/svg" width="1600" height="1000" viewBox="0 0 1600 1000" role="img" aria-labelledby="title desc">
  <title id="title">Visual entonym memory image for ثج؛جث</title>
  <desc id="desc">A silent pair-specific visual memory image. Neighborhood: المكان والارض والماء. The scene is generated from layered Arabic semantic terms and roots: ماء؛ ارض؛ جثي؛ جثوة؛ تراب؛ ثج؛ جث: ماء، ارض، جثي، جثوة؛ قبر؛ جثم؛ جدث؛ جثو؛ جثث؛ ثجج؛ جثو.</desc>
  <defs>
    <linearGradient id="posterBg" x1="0" y1="0" x2="1" y2="1">
      <stop offset="0%" stop-color="#2e5144"/>
      <stop offset="48%" stop-color="#75b4a2"/>
      <stop offset="100%" stop-color="#ead49a"/>
    </linearGradient>
    <radialGradient id="warmGlow" cx="50%" cy="22%" r="46%">
      <stop offset="0%" stop-color="#e9ffff" stop-opacity=".88"/>
      <stop offset="62%" stop-color="#e9ffff" stop-opacity=".24"/>
      <stop offset="100%" stop-color="#e9ffff" stop-opacity="0"/>
    </radialGradient>
    <filter id="posterShadow" x="-20%" y="-20%" width="140%" height="150%">
      <feDropShadow dx="0" dy="22" stdDeviation="22" flood-color="#140d08" flood-opacity=".32"/>
    </filter>
    <filter id="hardInk" x="-20%" y="-20%" width="140%" height="150%">
      <feDropShadow dx="6" dy="8" stdDeviation="0" flood-color="#12100c" flood-opacity=".34"/>
    </filter>
    <style>
      .ink { stroke: #16120d; stroke-width: 8; stroke-linecap: round; stroke-linejoin: round; }
      .thin { stroke: #16120d; stroke-width: 5; stroke-linecap: round; stroke-linejoin: round; }
    </style>
  </defs>
  <rect width="1600" height="1000" fill="url(#posterBg)"/>
  <rect width="1600" height="1000" fill="url(#warmGlow)"/>
  <circle cx="210" cy="724" r="35" fill="#fff1b0" opacity="0.08"/>
  <circle cx="1403" cy="881" r="18" fill="#fff8df" opacity="0.11"/>
  <circle cx="1136" cy="188" r="35" fill="#fff1b0" opacity="0.13"/>
  <circle cx="869" cy="345" r="18" fill="#fff8df" opacity="0.16"/>
  <circle cx="602" cy="502" r="35" fill="#fff1b0" opacity="0.08"/>
  <circle cx="335" cy="659" r="18" fill="#fff8df" opacity="0.11"/>
  <circle cx="1528" cy="816" r="35" fill="#fff1b0" opacity="0.13"/>
  <circle cx="1261" cy="123" r="18" fill="#fff8df" opacity="0.16"/>
  <circle cx="994" cy="280" r="35" fill="#fff1b0" opacity="0.08"/>
  <circle cx="727" cy="437" r="18" fill="#fff8df" opacity="0.11"/>
  <g id="semantic-scene" data-scene-group="C01_PLACE_EARTH_WATER" data-primary-category="water_place" filter="url(#posterShadow)" opacity=".76">

    <g id="poster-place-island">
      <path d="M364 614 C520 408 856 344 1074 452 C1238 534 1338 650 1450 704 C1168 854 666 874 364 614Z" fill="#fff1b0" class="ink"/>
      <path d="M640 610 C736 500 900 506 1012 614" fill="#1b6f82" class="ink"/>
      <path d="M180 740 C446 840 746 854 1420 720" fill="none" stroke="#e9ffff" stroke-width="28" stroke-linecap="round" opacity=".78"/>
      <circle cx="1108" cy="278" r="74" fill="#fff8df" class="ink"/>
    </g>
  </g>
  <g id="semantic-atmosphere" opacity=".72">

    <path d="M-77.0 790 C250 642 464 752 740 604 C1010 462 1214 514 1710 282" fill="none" stroke="#fff8df" stroke-width="54" stroke-linecap="round" opacity=".34"/>
    <path d="M120 858 C420 744 702 818 1048 674 C1280 578 1434 604 1580 532" fill="none" stroke="#e9ffff" stroke-width="18" stroke-linecap="round" opacity=".42"/>

    <path d="M224 514 C460 248 1140 248 1376 514 C1140 774 460 774 224 514Z" fill="#fff8df" opacity=".20" class="ink"/>
    <circle cx="800" cy="514" r="118" fill="none" stroke="#e9ffff" stroke-width="11" opacity=".42"/>
    <path d="M352 812 C548 650 1048 650 1250 812" fill="none" stroke="#e9ffff" stroke-width="10" stroke-linecap="round" opacity=".34"/>
  </g>
  <g id="semantic-focal-cues" filter="url(#hardInk)">

    <g transform="rotate(-4.0 531.0 606.0)" opacity=".70">

      <g opacity=".86">
        <path d="M531.0 430.5 C412.1 589.0 431.9 702.2 531.0 724.9 C638.5 696.6 638.5 589.0 531.0 430.5Z" fill="#e9ffff" class="thin"/>
        <path d="M347.0 758.8 C451.8 705.0 604.6 809.8 723.4 741.8" fill="none" stroke="#e9ffff" stroke-width="36.8" stroke-linecap="round"/>
      </g>
    </g>

    <g transform="rotate(-2.0 1162.0 413.0)" opacity=".70">

      <g opacity=".84">
        <path d="M981.8 413.0 C1083.5 302.1 1240.5 302.1 1342.2 413.0 C1240.5 523.9 1083.5 523.9 981.8 413.0Z" fill="#fff8df" opacity=".74" class="thin"/>
        <circle cx="1162.0" cy="413.0" r="62.4" fill="#fff8df" class="thin"/>
        <circle cx="1162.0" cy="413.0" r="23.1" fill="#16120d"/>
      </g>
    </g>
  </g>
  <g id="semantic-depth-cue">
    <circle cx="298.0" cy="889.0" r="13" fill="#ff8b6e" opacity="0.28" stroke="#fff8df" stroke-width="3"/>
    <circle cx="398.0" cy="870.0" r="10" fill="#ff8b6e" opacity="0.30" stroke="#fff8df" stroke-width="3"/>
    <circle cx="498.0" cy="879.0" r="17" fill="#ff8b6e" opacity="0.32" stroke="#fff8df" stroke-width="3"/>
    <circle cx="598.0" cy="888.0" r="14" fill="#ff8b6e" opacity="0.34" stroke="#fff8df" stroke-width="3"/>
    <circle cx="698.0" cy="897.0" r="11" fill="#ff8b6e" opacity="0.36" stroke="#fff8df" stroke-width="3"/>
    <circle cx="798.0" cy="878.0" r="18" fill="#ff8b6e" opacity="0.38" stroke="#fff8df" stroke-width="3"/>
    <circle cx="898.0" cy="887.0" r="15" fill="#ff8b6e" opacity="0.40" stroke="#fff8df" stroke-width="3"/>
    <circle cx="998.0" cy="896.0" r="12" fill="#ff8b6e" opacity="0.42" stroke="#fff8df" stroke-width="3"/>
    <circle cx="1098.0" cy="877.0" r="19" fill="#ff8b6e" opacity="0.44" stroke="#fff8df" stroke-width="3"/>
    <circle cx="1198.0" cy="886.0" r="16" fill="#ff8b6e" opacity="0.46" stroke="#fff8df" stroke-width="3"/>
    <circle cx="1298.0" cy="895.0" r="13" fill="#ff8b6e" opacity="0.48" stroke="#fff8df" stroke-width="3"/>
  </g>
</svg>
