<svg xmlns="http://www.w3.org/2000/svg" width="1600" height="1000" viewBox="0 0 1600 1000" role="img" aria-labelledby="title desc">
  <title id="title">Visual entonym memory image for غي؛يغ</title>
  <desc id="desc">A silent pair-specific visual memory image. Neighborhood: النبات والطعام والمادة. The scene is generated from layered Arabic semantic terms and roots: ماء؛ غاية؛ شجر؛ الدم؛ شجرة؛ نمو، اتساع، غذاء، مادة نافعة، رزق محسوس، زيادة/رزق؛ بما؛ حرب؛ غيل؛ طغي؛ غوي؛ غيا؛ غيب؛ غير.</desc>
  <defs>
    <linearGradient id="posterBg" x1="0" y1="0" x2="1" y2="1">
      <stop offset="0%" stop-color="#1f4634"/>
      <stop offset="48%" stop-color="#67a85f"/>
      <stop offset="100%" stop-color="#efd27a"/>
    </linearGradient>
    <radialGradient id="warmGlow" cx="50%" cy="22%" r="46%">
      <stop offset="0%" stop-color="#fff3ad" stop-opacity=".88"/>
      <stop offset="62%" stop-color="#fff3ad" stop-opacity=".24"/>
      <stop offset="100%" stop-color="#fff3ad" stop-opacity="0"/>
    </radialGradient>
    <filter id="posterShadow" x="-20%" y="-20%" width="140%" height="150%">
      <feDropShadow dx="0" dy="22" stdDeviation="22" flood-color="#140d08" flood-opacity=".32"/>
    </filter>
    <filter id="hardInk" x="-20%" y="-20%" width="140%" height="150%">
      <feDropShadow dx="6" dy="8" stdDeviation="0" flood-color="#12100c" flood-opacity=".34"/>
    </filter>
    <style>
      .ink { stroke: #16120d; stroke-width: 8; stroke-linecap: round; stroke-linejoin: round; }
      .thin { stroke: #16120d; stroke-width: 5; stroke-linecap: round; stroke-linejoin: round; }
    </style>
  </defs>
  <rect width="1600" height="1000" fill="url(#posterBg)"/>
  <rect width="1600" height="1000" fill="url(#warmGlow)"/>
  <circle cx="210" cy="724" r="35" fill="#f2b84d" opacity="0.08"/>
  <circle cx="1403" cy="881" r="18" fill="#fff8df" opacity="0.11"/>
  <circle cx="1136" cy="188" r="35" fill="#f2b84d" opacity="0.13"/>
  <circle cx="869" cy="345" r="18" fill="#fff8df" opacity="0.16"/>
  <circle cx="602" cy="502" r="35" fill="#f2b84d" opacity="0.08"/>
  <circle cx="335" cy="659" r="18" fill="#fff8df" opacity="0.11"/>
  <circle cx="1528" cy="816" r="35" fill="#f2b84d" opacity="0.13"/>
  <circle cx="1261" cy="123" r="18" fill="#fff8df" opacity="0.16"/>
  <circle cx="994" cy="280" r="35" fill="#f2b84d" opacity="0.08"/>
  <circle cx="727" cy="437" r="18" fill="#fff8df" opacity="0.11"/>
  <g id="semantic-scene" data-scene-group="C08_GROWTH_FOOD_MATERIAL" data-primary-category="growth" filter="url(#posterShadow)" opacity=".76">

    <g id="poster-growth-roots">
      <path d="M806 846 C780 700 788 566 812 430" fill="none" stroke="#16120d" stroke-width="22" stroke-linecap="round"/>
      <path d="M812 430 C688 376 604 282 560 164 C712 176 810 270 812 430Z" fill="#f2b84d" class="ink"/>
      <path d="M820 430 C952 356 1070 270 1190 160 C1208 332 1054 438 820 430Z" fill="#fff8df" class="ink"/>
      <path d="M790 846 C664 754 538 796 408 892 M820 846 C958 744 1082 792 1200 884 M798 740 C684 676 584 690 476 760 M818 716 C952 664 1060 680 1168 754" fill="none" stroke="#fff8df" stroke-width="15" stroke-linecap="round"/>
    </g>
  </g>
  <g id="semantic-atmosphere" opacity=".72">

    <path d="M742 940 C728 742 760 590 824 420" fill="none" stroke="#fff8df" stroke-width="34" stroke-linecap="round" opacity=".34"/>
    <path d="M818 472 C640 404 552 288 526 130 C720 156 818 292 818 472Z" fill="#f2b84d" opacity=".34" class="ink"/>
    <path d="M850 464 C1012 350 1168 256 1350 178 C1324 398 1108 526 850 464Z" fill="#fff8df" opacity=".34" class="ink"/>

    <path d="M156 820 C388 538 626 672 804 492 C986 308 1178 436 1456 188" fill="none" stroke="#fff3ad" stroke-width="22" stroke-linecap="round" opacity=".20"/>
    <path d="M1456 188 L1338 194 M1456 188 L1416 304" fill="none" stroke="#fff3ad" stroke-width="22" stroke-linecap="round" opacity=".20"/>
    <path d="M238 890 C520 778 912 790 1308 674" fill="none" stroke="#fff3ad" stroke-width="8" stroke-linecap="round" opacity=".34"/>
  </g>
  <g id="semantic-focal-cues" filter="url(#hardInk)">

    <g transform="rotate(3.0 524.0 555.0)" opacity=".70">

      <g opacity=".88">
        <path d="M524.0 763.8 C506.6 589.8 547.2 502.8 524.0 375.2" fill="none" stroke="#16120d" stroke-width="37.7" stroke-linecap="round"/>
        <path d="M524.0 410.0 C315.2 340.4 303.6 526.0 524.0 468.0 C750.2 526.0 732.8 340.4 524.0 410.0Z" fill="#f2b84d" class="thin"/>
        <circle cx="466.0" cy="549.2" r="52.2" fill="#fff3ad" class="thin"/>
        <circle cx="593.6" cy="566.6" r="46.4" fill="#fff8df" class="thin"/>
      </g>
    </g>

    <g transform="rotate(5.0 1098.0 454.0)" opacity=".70">

      <g opacity=".86">
        <path d="M888.1 582.0 C1016.1 341.4 1139.0 561.5 1297.7 361.8" fill="none" stroke="#fff3ad" stroke-width="46.1" stroke-linecap="round"/>
        <path d="M1297.7 361.8 L1144.1 356.7 M1297.7 361.8 L1241.4 495.0" fill="none" stroke="#fff3ad" stroke-width="46.1" stroke-linecap="round"/>
        <circle cx="1011.0" cy="443.8" r="41.0" fill="#fff8df" class="thin"/>
      </g>
    </g>
  </g>
  <g id="semantic-depth-cue">
    <circle cx="298.0" cy="882.0" r="10" fill="#ffd35c" opacity="0.28" stroke="#fff8df" stroke-width="3"/>
    <circle cx="398.0" cy="891.0" r="17" fill="#ffd35c" opacity="0.30" stroke="#fff8df" stroke-width="3"/>
    <circle cx="498.0" cy="872.0" r="14" fill="#ffd35c" opacity="0.32" stroke="#fff8df" stroke-width="3"/>
    <circle cx="598.0" cy="881.0" r="11" fill="#ffd35c" opacity="0.34" stroke="#fff8df" stroke-width="3"/>
    <circle cx="698.0" cy="890.0" r="18" fill="#ffd35c" opacity="0.36" stroke="#fff8df" stroke-width="3"/>
    <circle cx="798.0" cy="871.0" r="15" fill="#ffd35c" opacity="0.38" stroke="#fff8df" stroke-width="3"/>
    <circle cx="898.0" cy="880.0" r="12" fill="#ffd35c" opacity="0.40" stroke="#fff8df" stroke-width="3"/>
    <circle cx="998.0" cy="889.0" r="19" fill="#ffd35c" opacity="0.42" stroke="#fff8df" stroke-width="3"/>
    <circle cx="1098.0" cy="870.0" r="16" fill="#ffd35c" opacity="0.44" stroke="#fff8df" stroke-width="3"/>
    <circle cx="1198.0" cy="879.0" r="13" fill="#ffd35c" opacity="0.46" stroke="#fff8df" stroke-width="3"/>
    <circle cx="1298.0" cy="888.0" r="10" fill="#ffd35c" opacity="0.48" stroke="#fff8df" stroke-width="3"/>
  </g>
</svg>
