<svg xmlns="http://www.w3.org/2000/svg" width="1600" height="1000" viewBox="0 0 1600 1000" role="img" aria-labelledby="title desc">
  <title id="title">Visual entonym memory image for صع؛عص</title>
  <desc id="desc">A silent pair-specific visual memory image. Neighborhood: البدن والحس. The scene is generated from layered Arabic semantic terms and roots: راس؛ ارض؛ ماء؛ راسه؛ شديد؛ بدن، ملامسة، حس، اثر داخلي/خارجي؛ زرع؛ حسن؛ صقع؛ رصع؛ صبع؛ صدع؛ صرع؛ صعد.</desc>
  <defs>
    <linearGradient id="posterBg" x1="0" y1="0" x2="1" y2="1">
      <stop offset="0%" stop-color="#35243a"/>
      <stop offset="48%" stop-color="#805d75"/>
      <stop offset="100%" stop-color="#d3a77d"/>
    </linearGradient>
    <radialGradient id="warmGlow" cx="44%" cy="46%" r="46%">
      <stop offset="0%" stop-color="#ffd7ad" stop-opacity=".88"/>
      <stop offset="62%" stop-color="#ffd7ad" stop-opacity=".24"/>
      <stop offset="100%" stop-color="#ffd7ad" stop-opacity="0"/>
    </radialGradient>
    <filter id="posterShadow" x="-20%" y="-20%" width="140%" height="150%">
      <feDropShadow dx="0" dy="22" stdDeviation="22" flood-color="#140d08" flood-opacity=".32"/>
    </filter>
    <filter id="hardInk" x="-20%" y="-20%" width="140%" height="150%">
      <feDropShadow dx="6" dy="8" stdDeviation="0" flood-color="#12100c" flood-opacity=".34"/>
    </filter>
    <style>
      .ink { stroke: #16120d; stroke-width: 8; stroke-linecap: round; stroke-linejoin: round; }
      .thin { stroke: #16120d; stroke-width: 5; stroke-linecap: round; stroke-linejoin: round; }
    </style>
  </defs>
  <rect width="1600" height="1000" fill="url(#posterBg)"/>
  <rect width="1600" height="1000" fill="url(#warmGlow)"/>
  <circle cx="422" cy="578" r="31" fill="#ffbd93" opacity="0.08"/>
  <circle cx="1199" cy="799" r="14" fill="#fff8df" opacity="0.11"/>
  <circle cx="516" cy="170" r="31" fill="#ffbd93" opacity="0.13"/>
  <circle cx="1293" cy="391" r="14" fill="#fff8df" opacity="0.16"/>
  <circle cx="610" cy="612" r="31" fill="#ffbd93" opacity="0.08"/>
  <circle cx="1387" cy="833" r="14" fill="#fff8df" opacity="0.11"/>
  <circle cx="704" cy="204" r="31" fill="#ffbd93" opacity="0.13"/>
  <circle cx="1481" cy="425" r="14" fill="#fff8df" opacity="0.16"/>
  <circle cx="798" cy="646" r="31" fill="#ffbd93" opacity="0.08"/>
  <circle cx="115" cy="867" r="14" fill="#fff8df" opacity="0.11"/>
  <g id="semantic-scene" data-scene-group="C03_BODY_PERCEPTION" data-primary-category="body" filter="url(#posterShadow)" opacity=".76">

    <g id="poster-body-sensing-rings">
      <circle cx="800" cy="500" r="82" fill="#fff8df" class="ink"/>
      <circle cx="800" cy="500" r="180" fill="none" stroke="#ffbd93" stroke-width="18"/>
      <circle cx="800" cy="500" r="306" fill="none" stroke="#fff8df" stroke-width="12" opacity=".72"/>
      <path d="M264 320 C410 420 504 486 800 500 C1098 514 1198 580 1344 680" fill="none" stroke="#ffd7ad" stroke-width="20" stroke-linecap="round"/>
      <circle cx="1455" cy="155" r="10" fill="#fff8df" opacity=".72"/>
      <circle cx="831" cy="777" r="17" fill="#fff8df" opacity=".72"/>
      <circle cx="207" cy="619" r="9" fill="#fff8df" opacity=".72"/>
      <circle cx="963" cy="461" r="16" fill="#fff8df" opacity=".72"/>
      <circle cx="339" cy="303" r="8" fill="#fff8df" opacity=".72"/>
      <circle cx="1095" cy="145" r="15" fill="#fff8df" opacity=".72"/>
      <circle cx="471" cy="767" r="7" fill="#fff8df" opacity=".72"/>
      <circle cx="1227" cy="609" r="14" fill="#fff8df" opacity=".72"/>
      <circle cx="603" cy="451" r="6" fill="#fff8df" opacity=".72"/>
      <circle cx="1359" cy="293" r="13" fill="#fff8df" opacity=".72"/>
    </g>
  </g>
  <g id="semantic-atmosphere" opacity=".72">

    <path d="M224 514 C460 248 1140 248 1376 514 C1140 774 460 774 224 514Z" fill="#ffbd93" opacity=".34" class="ink"/>
    <circle cx="800" cy="514" r="184" fill="none" stroke="#fff8df" stroke-width="20" opacity=".42"/>
    <path d="M352 812 C548 650 1048 650 1250 812" fill="none" stroke="#ffd7ad" stroke-width="18" stroke-linecap="round" opacity=".34"/>

    <path d="M850 96 L494 534 L754 500 L620 906 L1138 368 L842 422Z" fill="#ffd7ad" opacity=".20" class="ink"/>
    <path d="M284 756 L630 612 M990 380 L1358 214" stroke="#ffd7ad" stroke-width="13" stroke-linecap="round" opacity=".44"/>
    <path d="M802 500 L560 260 M802 500 L1178 244 M802 500 L1260 824 M802 500 L448 850" stroke="#fff8df" stroke-width="5" stroke-linecap="round" opacity=".24"/>
  </g>
  <g id="semantic-focal-cues" filter="url(#hardInk)">

    <g transform="rotate(8.0 529.0 587.0)" opacity=".70">

      <g opacity=".84">
        <path d="M291.1 587.0 C425.3 440.6 632.7 440.6 766.9 587.0 C632.7 733.4 425.3 733.4 291.1 587.0Z" fill="#fff8df" opacity=".74" class="thin"/>
        <circle cx="529.0" cy="587.0" r="82.4" fill="#ffbd93" class="thin"/>
        <circle cx="529.0" cy="587.0" r="30.5" fill="#16120d"/>
      </g>
    </g>

    <g transform="rotate(-10.0 1077.0 434.0)" opacity=".70">

      <g transform="rotate(9 1077.0 434.0)" opacity=".88">
        <path d="M1109.9 231.9 L968.9 438.7 L1058.2 429.3 L1011.2 636.1 L1199.2 391.7 L1095.8 410.5Z" fill="#ffd7ad" class="thin"/>
        <path d="M903.1 556.2 L1246.2 325.9" stroke="#fff8df" stroke-width="25.9" stroke-linecap="round" opacity=".62"/>
      </g>
    </g>
  </g>
  <g id="semantic-depth-cue">
    <circle cx="298.0" cy="883.0" r="15" fill="#ffd35c" opacity="0.28" stroke="#fff8df" stroke-width="3"/>
    <circle cx="398.0" cy="892.0" r="12" fill="#ffd35c" opacity="0.30" stroke="#fff8df" stroke-width="3"/>
    <circle cx="498.0" cy="873.0" r="19" fill="#ffd35c" opacity="0.32" stroke="#fff8df" stroke-width="3"/>
    <circle cx="598.0" cy="882.0" r="16" fill="#ffd35c" opacity="0.34" stroke="#fff8df" stroke-width="3"/>
    <circle cx="698.0" cy="891.0" r="13" fill="#ffd35c" opacity="0.36" stroke="#fff8df" stroke-width="3"/>
    <circle cx="798.0" cy="872.0" r="10" fill="#ffd35c" opacity="0.38" stroke="#fff8df" stroke-width="3"/>
    <circle cx="898.0" cy="881.0" r="17" fill="#ffd35c" opacity="0.40" stroke="#fff8df" stroke-width="3"/>
    <circle cx="998.0" cy="890.0" r="14" fill="#ffd35c" opacity="0.42" stroke="#fff8df" stroke-width="3"/>
    <circle cx="1098.0" cy="871.0" r="11" fill="#ffd35c" opacity="0.44" stroke="#fff8df" stroke-width="3"/>
    <circle cx="1198.0" cy="880.0" r="18" fill="#ffd35c" opacity="0.46" stroke="#fff8df" stroke-width="3"/>
    <circle cx="1298.0" cy="889.0" r="15" fill="#ffd35c" opacity="0.48" stroke="#fff8df" stroke-width="3"/>
  </g>
</svg>
